<mxfile host="app.diagrams.net" agent="Mozilla/5.0 (X11; Linux x86_64) AppleWebKit/537.36 (KHTML, like Gecko) Chrome/131.0.0.0 Safari/537.36" version="26.0.1">
  <diagram id="C5RBs43oDa-KdzZeNtuy" name="Page-1">
    <mxGraphModel grid="1" page="1" gridSize="10" guides="1" tooltips="1" connect="1" arrows="1" fold="1" pageScale="1" pageWidth="827" pageHeight="1169" math="0" shadow="0">
      <root>
        <mxCell id="WIyWlLk6GJQsqaUBKTNV-0" />
        <mxCell id="WIyWlLk6GJQsqaUBKTNV-1" parent="WIyWlLk6GJQsqaUBKTNV-0" />
        <mxCell id="8sLEviqTKz7SDLseFDXD-40" value="" style="rounded=0;html=1;jettySize=auto;orthogonalLoop=1;fontSize=11;endArrow=block;endFill=0;endSize=8;strokeWidth=1;shadow=0;labelBackgroundColor=none;edgeStyle=orthogonalEdgeStyle;" edge="1" parent="WIyWlLk6GJQsqaUBKTNV-1" source="8sLEviqTKz7SDLseFDXD-48">
          <mxGeometry relative="1" as="geometry">
            <mxPoint x="230" y="430" as="targetPoint" />
            <Array as="points">
              <mxPoint x="230" y="398" />
              <mxPoint x="231" y="398" />
            </Array>
          </mxGeometry>
        </mxCell>
        <mxCell id="8sLEviqTKz7SDLseFDXD-41" value="Създаване на сокет" style="rounded=1;whiteSpace=wrap;html=1;fontSize=12;glass=0;strokeWidth=1;shadow=0;" vertex="1" parent="WIyWlLk6GJQsqaUBKTNV-1">
          <mxGeometry x="170" y="90" width="120" height="40" as="geometry" />
        </mxCell>
        <mxCell id="8sLEviqTKz7SDLseFDXD-45" style="edgeStyle=orthogonalEdgeStyle;rounded=0;orthogonalLoop=1;jettySize=auto;html=1;exitX=0.5;exitY=1;exitDx=0;exitDy=0;entryX=0.417;entryY=0;entryDx=0;entryDy=0;entryPerimeter=0;" edge="1" parent="WIyWlLk6GJQsqaUBKTNV-1" source="8sLEviqTKz7SDLseFDXD-46" target="8sLEviqTKz7SDLseFDXD-59">
          <mxGeometry relative="1" as="geometry">
            <mxPoint x="230" y="930" as="targetPoint" />
            <Array as="points">
              <mxPoint x="230" y="890" />
            </Array>
          </mxGeometry>
        </mxCell>
        <mxCell id="8sLEviqTKz7SDLseFDXD-46" value="Създаваме масив от файл. деск.&amp;nbsp;&lt;br&gt;fds[3]" style="rounded=1;whiteSpace=wrap;html=1;fontSize=12;glass=0;strokeWidth=1;shadow=0;" vertex="1" parent="WIyWlLk6GJQsqaUBKTNV-1">
          <mxGeometry x="170" y="770" width="120" height="60" as="geometry" />
        </mxCell>
        <mxCell id="8sLEviqTKz7SDLseFDXD-47" value="No" style="rounded=0;html=1;jettySize=auto;orthogonalLoop=1;fontSize=11;endArrow=block;endFill=0;endSize=8;strokeWidth=1;shadow=0;labelBackgroundColor=none;edgeStyle=orthogonalEdgeStyle;" edge="1" parent="WIyWlLk6GJQsqaUBKTNV-1" source="8sLEviqTKz7SDLseFDXD-51" target="8sLEviqTKz7SDLseFDXD-48">
          <mxGeometry relative="1" as="geometry">
            <mxPoint x="230" y="130" as="sourcePoint" />
            <mxPoint x="180" y="380" as="targetPoint" />
          </mxGeometry>
        </mxCell>
        <mxCell id="8sLEviqTKz7SDLseFDXD-48" value="Създаване на адресна структура" style="rounded=1;whiteSpace=wrap;html=1;fontSize=12;glass=0;strokeWidth=1;shadow=0;" vertex="1" parent="WIyWlLk6GJQsqaUBKTNV-1">
          <mxGeometry x="170" y="320" width="120" height="40" as="geometry" />
        </mxCell>
        <mxCell id="8sLEviqTKz7SDLseFDXD-49" value="" style="rounded=0;html=1;jettySize=auto;orthogonalLoop=1;fontSize=11;endArrow=block;endFill=0;endSize=8;strokeWidth=1;shadow=0;labelBackgroundColor=none;edgeStyle=orthogonalEdgeStyle;" edge="1" parent="WIyWlLk6GJQsqaUBKTNV-1" source="8sLEviqTKz7SDLseFDXD-41" target="8sLEviqTKz7SDLseFDXD-51">
          <mxGeometry relative="1" as="geometry">
            <mxPoint x="230" y="130" as="sourcePoint" />
            <mxPoint x="250" y="260" as="targetPoint" />
          </mxGeometry>
        </mxCell>
        <mxCell id="8sLEviqTKz7SDLseFDXD-50" value="Yes" style="edgeStyle=orthogonalEdgeStyle;rounded=0;orthogonalLoop=1;jettySize=auto;html=1;exitX=1;exitY=0.5;exitDx=0;exitDy=0;" edge="1" parent="WIyWlLk6GJQsqaUBKTNV-1" source="8sLEviqTKz7SDLseFDXD-51">
          <mxGeometry relative="1" as="geometry">
            <mxPoint x="330" y="210" as="targetPoint" />
          </mxGeometry>
        </mxCell>
        <mxCell id="8sLEviqTKz7SDLseFDXD-51" value="socket() &amp;lt; 0" style="rhombus;whiteSpace=wrap;html=1;" vertex="1" parent="WIyWlLk6GJQsqaUBKTNV-1">
          <mxGeometry x="190" y="170" width="80" height="80" as="geometry" />
        </mxCell>
        <mxCell id="8sLEviqTKz7SDLseFDXD-52" value="return 1" style="ellipse;whiteSpace=wrap;html=1;" vertex="1" parent="WIyWlLk6GJQsqaUBKTNV-1">
          <mxGeometry x="330" y="170" width="120" height="80" as="geometry" />
        </mxCell>
        <mxCell id="8sLEviqTKz7SDLseFDXD-55" style="edgeStyle=orthogonalEdgeStyle;rounded=0;orthogonalLoop=1;jettySize=auto;html=1;exitX=0.5;exitY=1;exitDx=0;exitDy=0;entryX=0.5;entryY=0;entryDx=0;entryDy=0;" edge="1" parent="WIyWlLk6GJQsqaUBKTNV-1" target="8sLEviqTKz7SDLseFDXD-46">
          <mxGeometry relative="1" as="geometry">
            <mxPoint x="230" y="730" as="sourcePoint" />
          </mxGeometry>
        </mxCell>
        <mxCell id="8sLEviqTKz7SDLseFDXD-56" style="edgeStyle=orthogonalEdgeStyle;rounded=0;orthogonalLoop=1;jettySize=auto;html=1;exitX=0.5;exitY=1;exitDx=0;exitDy=0;" edge="1" parent="WIyWlLk6GJQsqaUBKTNV-1" source="8sLEviqTKz7SDLseFDXD-80">
          <mxGeometry relative="1" as="geometry">
            <mxPoint x="230" y="770" as="targetPoint" />
            <mxPoint x="230" y="730" as="sourcePoint" />
          </mxGeometry>
        </mxCell>
        <mxCell id="8sLEviqTKz7SDLseFDXD-58" style="edgeStyle=orthogonalEdgeStyle;rounded=0;orthogonalLoop=1;jettySize=auto;html=1;exitX=0.5;exitY=1;exitDx=0;exitDy=0;entryX=0.5;entryY=0;entryDx=0;entryDy=0;" edge="1" parent="WIyWlLk6GJQsqaUBKTNV-1" source="8sLEviqTKz7SDLseFDXD-59" target="8sLEviqTKz7SDLseFDXD-61">
          <mxGeometry relative="1" as="geometry" />
        </mxCell>
        <mxCell id="8sLEviqTKz7SDLseFDXD-59" value="char buffer[256]" style="rounded=1;whiteSpace=wrap;html=1;" vertex="1" parent="WIyWlLk6GJQsqaUBKTNV-1">
          <mxGeometry x="180" y="890" width="120" height="60" as="geometry" />
        </mxCell>
        <mxCell id="8sLEviqTKz7SDLseFDXD-60" style="edgeStyle=orthogonalEdgeStyle;rounded=0;orthogonalLoop=1;jettySize=auto;html=1;exitX=0.5;exitY=1;exitDx=0;exitDy=0;" edge="1" parent="WIyWlLk6GJQsqaUBKTNV-1" source="8sLEviqTKz7SDLseFDXD-61">
          <mxGeometry relative="1" as="geometry">
            <mxPoint x="240" y="1080" as="targetPoint" />
          </mxGeometry>
        </mxCell>
        <mxCell id="8sLEviqTKz7SDLseFDXD-61" value="poll(fds, 2, 50000);" style="rounded=1;whiteSpace=wrap;html=1;" vertex="1" parent="WIyWlLk6GJQsqaUBKTNV-1">
          <mxGeometry x="180" y="980" width="120" height="60" as="geometry" />
        </mxCell>
        <mxCell id="8sLEviqTKz7SDLseFDXD-62" style="edgeStyle=orthogonalEdgeStyle;rounded=0;orthogonalLoop=1;jettySize=auto;html=1;exitX=0.5;exitY=1;exitDx=0;exitDy=0;" edge="1" parent="WIyWlLk6GJQsqaUBKTNV-1" source="8sLEviqTKz7SDLseFDXD-64">
          <mxGeometry relative="1" as="geometry">
            <mxPoint x="240" y="1240" as="targetPoint" />
          </mxGeometry>
        </mxCell>
        <mxCell id="8sLEviqTKz7SDLseFDXD-63" value="No&lt;div&gt;&lt;br&gt;&lt;/div&gt;" style="edgeStyle=orthogonalEdgeStyle;rounded=0;orthogonalLoop=1;jettySize=auto;html=1;exitX=1;exitY=0.5;exitDx=0;exitDy=0;" edge="1" parent="WIyWlLk6GJQsqaUBKTNV-1" source="8sLEviqTKz7SDLseFDXD-64">
          <mxGeometry relative="1" as="geometry">
            <mxPoint x="370" y="1145" as="targetPoint" />
          </mxGeometry>
        </mxCell>
        <mxCell id="8sLEviqTKz7SDLseFDXD-64" value="Ако първият файл. деск. съдържа POLLIN" style="rhombus;whiteSpace=wrap;html=1;" vertex="1" parent="WIyWlLk6GJQsqaUBKTNV-1">
          <mxGeometry x="160" y="1080" width="160" height="130" as="geometry" />
        </mxCell>
        <mxCell id="8sLEviqTKz7SDLseFDXD-65" style="edgeStyle=orthogonalEdgeStyle;rounded=0;orthogonalLoop=1;jettySize=auto;html=1;exitX=0.5;exitY=1;exitDx=0;exitDy=0;entryX=0.5;entryY=0;entryDx=0;entryDy=0;" edge="1" parent="WIyWlLk6GJQsqaUBKTNV-1" source="8sLEviqTKz7SDLseFDXD-67" target="8sLEviqTKz7SDLseFDXD-69">
          <mxGeometry relative="1" as="geometry" />
        </mxCell>
        <mxCell id="8sLEviqTKz7SDLseFDXD-66" value="Yes" style="edgeStyle=orthogonalEdgeStyle;rounded=0;orthogonalLoop=1;jettySize=auto;html=1;" edge="1" parent="WIyWlLk6GJQsqaUBKTNV-1" source="8sLEviqTKz7SDLseFDXD-67" target="8sLEviqTKz7SDLseFDXD-64">
          <mxGeometry relative="1" as="geometry" />
        </mxCell>
        <mxCell id="8sLEviqTKz7SDLseFDXD-67" value="read(0, buffer, 255);" style="rounded=1;whiteSpace=wrap;html=1;" vertex="1" parent="WIyWlLk6GJQsqaUBKTNV-1">
          <mxGeometry x="180" y="1250" width="120" height="60" as="geometry" />
        </mxCell>
        <mxCell id="8sLEviqTKz7SDLseFDXD-68" style="edgeStyle=orthogonalEdgeStyle;rounded=0;orthogonalLoop=1;jettySize=auto;html=1;exitX=0;exitY=0.5;exitDx=0;exitDy=0;" edge="1" parent="WIyWlLk6GJQsqaUBKTNV-1" source="8sLEviqTKz7SDLseFDXD-69">
          <mxGeometry relative="1" as="geometry">
            <mxPoint x="40" y="870" as="targetPoint" />
          </mxGeometry>
        </mxCell>
        <mxCell id="8sLEviqTKz7SDLseFDXD-69" value="send(clientfd, buffer, 255, 0);" style="rounded=1;whiteSpace=wrap;html=1;" vertex="1" parent="WIyWlLk6GJQsqaUBKTNV-1">
          <mxGeometry x="180" y="1340" width="120" height="60" as="geometry" />
        </mxCell>
        <mxCell id="8sLEviqTKz7SDLseFDXD-70" value="Yes" style="edgeStyle=orthogonalEdgeStyle;rounded=0;orthogonalLoop=1;jettySize=auto;html=1;exitX=0.5;exitY=1;exitDx=0;exitDy=0;" edge="1" parent="WIyWlLk6GJQsqaUBKTNV-1" source="8sLEviqTKz7SDLseFDXD-71">
          <mxGeometry relative="1" as="geometry">
            <mxPoint x="440" y="1250" as="targetPoint" />
          </mxGeometry>
        </mxCell>
        <mxCell id="8sLEviqTKz7SDLseFDXD-71" value="Ако втория ..." style="rhombus;whiteSpace=wrap;html=1;" vertex="1" parent="WIyWlLk6GJQsqaUBKTNV-1">
          <mxGeometry x="370" y="1080" width="140" height="130" as="geometry" />
        </mxCell>
        <mxCell id="8sLEviqTKz7SDLseFDXD-72" value="Yes" style="edgeStyle=orthogonalEdgeStyle;rounded=0;orthogonalLoop=1;jettySize=auto;html=1;exitX=0.5;exitY=1;exitDx=0;exitDy=0;" edge="1" parent="WIyWlLk6GJQsqaUBKTNV-1" source="8sLEviqTKz7SDLseFDXD-74">
          <mxGeometry relative="1" as="geometry">
            <mxPoint x="440" y="1430" as="targetPoint" />
          </mxGeometry>
        </mxCell>
        <mxCell id="8sLEviqTKz7SDLseFDXD-73" value="No" style="edgeStyle=orthogonalEdgeStyle;rounded=0;orthogonalLoop=1;jettySize=auto;html=1;exitX=1;exitY=0.5;exitDx=0;exitDy=0;" edge="1" parent="WIyWlLk6GJQsqaUBKTNV-1" source="8sLEviqTKz7SDLseFDXD-74">
          <mxGeometry relative="1" as="geometry">
            <mxPoint x="590" y="1310" as="targetPoint" />
          </mxGeometry>
        </mxCell>
        <mxCell id="8sLEviqTKz7SDLseFDXD-74" value="Ако сървърът не получава съобщ" style="rhombus;whiteSpace=wrap;html=1;" vertex="1" parent="WIyWlLk6GJQsqaUBKTNV-1">
          <mxGeometry x="370" y="1250" width="140" height="120" as="geometry" />
        </mxCell>
        <mxCell id="8sLEviqTKz7SDLseFDXD-75" value="return 0" style="ellipse;whiteSpace=wrap;html=1;" vertex="1" parent="WIyWlLk6GJQsqaUBKTNV-1">
          <mxGeometry x="380" y="1430" width="120" height="80" as="geometry" />
        </mxCell>
        <mxCell id="8sLEviqTKz7SDLseFDXD-76" style="edgeStyle=orthogonalEdgeStyle;rounded=0;orthogonalLoop=1;jettySize=auto;html=1;exitX=0.5;exitY=0;exitDx=0;exitDy=0;entryX=0.75;entryY=0;entryDx=0;entryDy=0;" edge="1" parent="WIyWlLk6GJQsqaUBKTNV-1" source="8sLEviqTKz7SDLseFDXD-77" target="8sLEviqTKz7SDLseFDXD-59">
          <mxGeometry relative="1" as="geometry">
            <Array as="points">
              <mxPoint x="660" y="870" />
              <mxPoint x="230" y="870" />
              <mxPoint x="230" y="890" />
            </Array>
          </mxGeometry>
        </mxCell>
        <mxCell id="8sLEviqTKz7SDLseFDXD-77" value="printf(&quot;%s\n&quot;, buffer);" style="rounded=1;whiteSpace=wrap;html=1;" vertex="1" parent="WIyWlLk6GJQsqaUBKTNV-1">
          <mxGeometry x="590" y="1280" width="140" height="60" as="geometry" />
        </mxCell>
        <mxCell id="8sLEviqTKz7SDLseFDXD-78" value="" style="endArrow=classic;html=1;rounded=0;" edge="1" parent="WIyWlLk6GJQsqaUBKTNV-1">
          <mxGeometry width="50" height="50" relative="1" as="geometry">
            <mxPoint x="40" y="870" as="sourcePoint" />
            <mxPoint x="230" y="870" as="targetPoint" />
          </mxGeometry>
        </mxCell>
        <mxCell id="8sLEviqTKz7SDLseFDXD-79" value="&lt;b&gt;Клиент&lt;/b&gt;" style="text;html=1;whiteSpace=wrap;overflow=hidden;rounded=0;fontSize=28;" vertex="1" parent="WIyWlLk6GJQsqaUBKTNV-1">
          <mxGeometry x="40" y="30" width="180" height="120" as="geometry" />
        </mxCell>
        <mxCell id="8sLEviqTKz7SDLseFDXD-80" value="connect()&lt;br&gt;Свързване с сервърът" style="rounded=1;whiteSpace=wrap;html=1;" vertex="1" parent="WIyWlLk6GJQsqaUBKTNV-1">
          <mxGeometry x="170" y="430" width="120" height="60" as="geometry" />
        </mxCell>
      </root>
    </mxGraphModel>
  </diagram>
</mxfile>
